# xmcd
#
# Track frame offsets:
#	182
#	12905
#	25785
#	45365
#	66865
#	77547
#	89197
#	109712
#	128455
#	148447
#
# Disc length: 2166 seconds
#
# Revision: 6
# Processed by: cddbd v1.5.2PL0 Copyright (c) Steve Scherf et al.
# Submitted via: audiograbber 1.83.01
#
DISCID=7e08740a
DTITLE=Joan Baez - From Every Stage [CD 1)
DYEAR=1976
DGENRE=Folk
TTITLE0=(Ain't Gonna Let Nobody) Turn Me Around [live]
TTITLE1=Blessed Are [live]
TTITLE2=Suzanne [live]
TTITLE3=Love Song To A Stranger Part II [live]
TTITLE4=I Shall Be Released [live]
TTITLE5=Blowin' In The Wind [live]
TTITLE6=Stewball [live]
TTITLE7=Natalia [live]
TTITLE8=The Ballad Of Sacco and Vanzetti [live]
TTITLE9=Joe Hill [live]
EXTD=
EXTT0=
EXTT1=
EXTT2=
EXTT3=
EXTT4=
EXTT5=
EXTT6=
EXTT7=
EXTT8=
EXTT9=
PLAYORDER=
